<?xml version="1.0" encoding="UTF-8" standalone="no"?>
<!DOCTYPE svg PUBLIC "-//W3C//DTD SVG 1.1//EN" "http://www.w3.org/Graphics/SVG/1.1/DTD/svg11.dtd">
<svg width="100%" height="100%" viewBox="0 0 800 400" version="1.1" xmlns="http://www.w3.org/2000/svg" xmlns:xlink="http://www.w3.org/1999/xlink" xml:space="preserve" xmlns:serif="http://www.serif.com/" style="fill-rule:evenodd;clip-rule:evenodd;stroke-linecap:round;stroke-linejoin:round;stroke-miterlimit:1.5;">
    <g transform="matrix(1.09376,0,0,1.09376,-30.5711,-86.362)">
        <g id="Layer2">
            <path d="M142.841,219.482C152.408,196.581 160.872,190.816 173.421,184.903C185.97,178.989 207.414,182.332 218.135,184.003" style="fill:rgb(45,212,191);stroke:black;stroke-width:9.14px;"/>
        </g>
    </g>
    <g transform="matrix(1.09376,0,0,1.09376,-33.1335,-82.7079)">
        <path d="M141.001,221.267C140.801,221.24 180.038,203.129 201.805,185.368C264.193,134.461 332.241,134.366 360.16,131.892C421.413,126.465 472.044,138.173 467.686,142.509C390.192,219.623 450.77,264.671 451.745,267.384C458.339,285.73 426.4,304.999 413.044,307.94C357.543,320.164 252.343,316.913 200.944,296.721C157.935,279.825 148.433,222.268 141.001,221.267Z" style="fill:rgb(71,85,105);stroke:black;stroke-width:9.14px;"/>
    </g>
    <g transform="matrix(1.09376,0,0,1.09376,-33.1335,-82.7079)">
        <g id="Layer1">
            <path d="M143.656,222.532C141.071,219.11 126.061,229.935 105.672,229.841C80.843,229.726 37.283,208.491 38.143,209.882C45.64,222.008 61.199,283.336 116.636,295.09C183.407,309.247 194.321,273.244 226.115,270.847C253.331,268.796 285.786,282.684 307.399,280.711C355.496,276.322 383.003,222.602 373.838,222.498C342.511,222.144 172.189,260.306 143.656,222.532Z" style="fill:rgb(45,212,191);stroke:black;stroke-width:9.14px;"/>
        </g>
    </g>
    <g id="Layer3">
        <g transform="matrix(1.09376,0,0,1.09376,-42.5875,-32.3287)">
            <g id="Layer6">
                <path d="M509.312,97.475C510.427,93.642 524.927,91.837 536.199,105.489C546.228,117.637 539.543,126.443 545.475,146.782C550.749,164.866 540.059,177.921 530.648,175.628C499.177,167.959 507.878,102.402 509.312,97.475Z" style="fill:rgb(71,85,105);stroke:black;stroke-width:9.14px;"/>
            </g>
        </g>
        <g transform="matrix(1.09376,0,0,1.09376,-33.1335,-82.7079)">
            <path d="M483.381,289.912C474.657,291.386 446.333,289.043 432.026,275.876C414.603,259.843 412.04,214.368 415.191,200.175C418.086,187.139 425.903,178.431 432.252,170.996C440.188,161.702 441.18,147.689 457.741,140.881C472.676,134.742 486.174,134.493 494.98,138.182C502.777,141.448 507.698,152.883 514.283,159.872C530.343,176.919 527.39,185.867 534.931,199.803C555.725,238.227 506.949,285.931 483.381,289.912Z" style="fill:rgb(148,163,184);stroke:black;stroke-width:9.14px;"/>
        </g>
    </g>
    <g transform="matrix(1.09376,0,0,1.09376,-65.4204,-42.0045)">
        <g id="arm-4r">
            <path d="M503.375,219.783C503.855,244.067 499.276,266.83 493.431,280.148C482.779,304.421 463.392,317.489 455.435,323.79C443.822,332.986 394.522,356.015 394.796,355.954C424.932,349.188 479.965,342.77 505.026,306.603C519.348,285.935 516.832,255.943 521.862,228.855" style="fill:url(#_Linear1);stroke:black;stroke-width:9.14px;"/>
        </g>
    </g>
    <g transform="matrix(1.09376,0,0,1.09376,-6.55007,-82.3754)">
        <g id="arm-4l">
            <path d="M482.168,229.6C481.837,283.747 482.693,291.269 488.316,304.856C508.307,353.159 571.884,347.716 571.61,347.653C522.984,336.407 523.033,308.858 518.757,280.153C516.103,262.338 503.055,228.676 508.085,201.588" style="fill:url(#_Linear2);stroke:black;stroke-width:9.14px;"/>
        </g>
    </g>
    <g transform="matrix(1.09376,0,0,1.09376,-15.379,-116.675)">
        <g id="arm-3l">
            <path d="M489.762,246.245C497.895,289.125 518.461,276.497 524.045,316.826C525.609,328.118 520.713,361 516.419,375.02C510.04,395.847 496.779,418.994 497.04,418.892C512.547,412.82 535.943,371.711 540.796,353.508C546.277,332.946 548.567,317.172 540.423,287.913C535.149,268.969 513.627,251.391 517.609,214.841" style="fill:url(#_Linear3);stroke:black;stroke-width:9.14px;"/>
        </g>
    </g>
    <g transform="matrix(1.09376,0,0,1.09376,-51.1559,-75.1904)">
        <g id="arm-3r">
            <path d="M488.319,238.76C497.95,307.817 513.708,342.588 547.666,343.406C591.218,344.455 597.766,365.105 612.361,375.453C649.165,401.55 666.524,386.759 666.255,386.68C623.803,374.189 608.508,342.705 584.354,329.177C561.042,316.119 534.277,322.257 526.995,297.418C522.73,282.871 520.299,258.378 526.463,230.173" style="fill:url(#_Linear4);stroke:black;stroke-width:9.14px;"/>
        </g>
    </g>
    <g transform="matrix(1.09376,0,0,1.09376,-18.4849,-155.88)">
        <g id="arm-3l1" serif:id="arm-3l">
            <path d="M502.424,287.898C504.671,301.781 510.798,318.003 522.433,330.178C542.943,351.639 579.245,358.483 606.998,342.973C641.437,323.726 633.804,323.617 660.083,313.085C703.239,295.79 742.072,322.855 740.924,320.176C738.896,315.444 711.18,289.452 661.473,292.096C629.209,293.812 622.27,320.799 584.354,329.177C570.32,332.278 543.03,322.488 535.132,308.469C527.395,294.737 521.068,263.291 520.45,250.758" style="fill:url(#_Linear5);stroke:black;stroke-width:9.14px;"/>
        </g>
    </g>
    <g transform="matrix(1.09376,0,0,1.09376,-39.694,-97.3564)">
        <g id="arm-2r">
            <path d="M488.319,238.76C497.95,307.817 525.361,320.792 559.319,321.61C602.871,322.659 599.983,306.401 631.185,315.553C649.777,321.006 668.629,335.262 680.605,335.554C703.326,336.108 710.687,318.238 710.503,318.25C675.696,320.47 658.087,305.625 633.933,292.096C610.621,279.038 570.401,314.461 548.901,300.047C529.228,286.858 520.299,258.378 526.463,230.173" style="fill:rgb(45,212,191);stroke:black;stroke-width:9.14px;"/>
        </g>
    </g>
    <g transform="matrix(1.09376,0,0,1.09376,-34.3532,-119.156)">
        <g id="arm-1r">
            <path d="M488.319,238.76C531.088,325.662 565.023,338.977 602.943,355.086C635.101,368.747 683.844,381.924 683.618,381.758C651.698,358.37 599.779,339.035 579.4,324.255C563.708,312.874 550.74,297.05 539.948,282.662C528.149,266.931 519.814,245.071 516.903,232.668" style="fill:url(#_Linear6);stroke:black;stroke-width:9.14px;"/>
        </g>
    </g>
    <g transform="matrix(1.09376,0,0,1.09376,8.83321,-107.869)">
        <g id="arm-1l">
            <path d="M467.131,221.698C485.85,247.15 493.951,257.444 505.88,267.983C528.336,287.823 547.027,292.068 569.958,288.877C606.623,283.775 616.97,252.42 619.801,245.101C627.34,225.615 628.896,194.08 640.162,183.229C650.331,173.436 666.672,179.437 668.926,190.895C672.554,209.34 658.172,222.436 652.425,229.727C650.648,231.981 677.468,229.308 687.838,205.395C693.669,191.949 687.51,167.808 665.154,156.131C648.307,147.332 622.52,157.253 614.543,187.298C606.557,217.375 600.572,236.521 591.955,248.587C579.842,265.548 564.651,268.356 549.939,266.464C518.426,262.409 491.791,201.609 482.906,191.632" style="fill:url(#_Linear7);stroke:black;stroke-width:9.14px;"/>
        </g>
    </g>
    <g transform="matrix(0.904806,0,0,0.816688,59.5683,-34.189)">
        <g id="Layer5">
            <path d="M447.137,167.198C448.596,164.248 449.02,178.428 460.34,176.219C464.608,175.386 465.255,161.407 470.318,160.281C473.736,159.522 479.364,170.454 485.13,169.27C489.434,168.387 489.582,157.09 492.383,155.115C493.652,154.22 495.056,163.417 494.478,171.689C494.049,177.824 492.53,183.45 489.057,184.072C485.313,184.742 478.996,172.497 473.178,174.851C464.977,178.168 466.259,189.662 460.254,189.788C450.759,189.986 445.781,169.939 447.137,167.198Z" style="stroke:rgb(203,213,225);stroke-width:2.32px;"/>
        </g>
    </g>
    <defs>
        <linearGradient id="_Linear1" x1="0" y1="0" x2="1" y2="0" gradientUnits="userSpaceOnUse" gradientTransform="matrix(11.9772,50.8603,-50.8603,11.9772,505.958,249.888)"><stop offset="0" style="stop-color:rgb(148,163,184);stop-opacity:1"/><stop offset="1" style="stop-color:rgb(245,158,11);stop-opacity:1"/></linearGradient>
        <linearGradient id="_Linear2" x1="0" y1="0" x2="1" y2="0" gradientUnits="userSpaceOnUse" gradientTransform="matrix(38.578,99.0992,-99.0992,38.578,498.13,243.505)"><stop offset="0" style="stop-color:rgb(71,85,105);stop-opacity:1"/><stop offset="0.44" style="stop-color:rgb(187,73,211);stop-opacity:1"/><stop offset="1" style="stop-color:rgb(217,70,239);stop-opacity:1"/></linearGradient>
        <linearGradient id="_Linear3" x1="0" y1="0" x2="1" y2="0" gradientUnits="userSpaceOnUse" gradientTransform="matrix(78.8475,219.226,-219.226,78.8475,504.485,238.692)"><stop offset="0" style="stop-color:rgb(71,85,105);stop-opacity:1"/><stop offset="0.21" style="stop-color:rgb(135,80,123);stop-opacity:1"/><stop offset="0.43" style="stop-color:rgb(203,75,143);stop-opacity:1"/><stop offset="1" style="stop-color:rgb(236,72,153);stop-opacity:1"/></linearGradient>
        <linearGradient id="_Linear4" x1="0" y1="0" x2="1" y2="0" gradientUnits="userSpaceOnUse" gradientTransform="matrix(14.8285,59.1003,-59.1003,14.8285,500.858,243.877)"><stop offset="0" style="stop-color:rgb(148,163,184);stop-opacity:1"/><stop offset="1" style="stop-color:rgb(34,211,238);stop-opacity:1"/></linearGradient>
        <linearGradient id="_Linear5" x1="0" y1="0" x2="1" y2="0" gradientUnits="userSpaceOnUse" gradientTransform="matrix(117.171,96.1449,-96.1449,117.171,510.591,289.632)"><stop offset="0" style="stop-color:rgb(71,85,105);stop-opacity:1"/><stop offset="1" style="stop-color:rgb(34,211,238);stop-opacity:1"/></linearGradient>
        <linearGradient id="_Linear6" x1="0" y1="0" x2="1" y2="0" gradientUnits="userSpaceOnUse" gradientTransform="matrix(31.6691,61.9461,-61.9461,31.6691,504.485,238.692)"><stop offset="0" style="stop-color:rgb(148,163,184);stop-opacity:1"/><stop offset="0.21" style="stop-color:rgb(182,128,172);stop-opacity:1"/><stop offset="0.43" style="stop-color:rgb(218,90,159);stop-opacity:1"/><stop offset="1" style="stop-color:rgb(236,72,153);stop-opacity:1"/></linearGradient>
        <linearGradient id="_Linear7" x1="0" y1="0" x2="1" y2="0" gradientUnits="userSpaceOnUse" gradientTransform="matrix(11.8237,30.6304,-30.6304,11.8237,484.136,222.368)"><stop offset="0" style="stop-color:rgb(148,163,184);stop-opacity:1"/><stop offset="1" style="stop-color:rgb(245,158,11);stop-opacity:1"/></linearGradient>
    </defs>
</svg>
