<?xml version="1.0" encoding="UTF-8" standalone="no"?>
<!DOCTYPE svg PUBLIC "-//W3C//DTD SVG 1.1//EN" "http://www.w3.org/Graphics/SVG/1.1/DTD/svg11.dtd">
<svg width="100%" height="100%" viewBox="0 0 1300 250" version="1.1" xmlns="http://www.w3.org/2000/svg" xmlns:xlink="http://www.w3.org/1999/xlink" xml:space="preserve" xmlns:serif="http://www.serif.com/" style="fill-rule:evenodd;clip-rule:evenodd;stroke-linecap:round;stroke-linejoin:round;stroke-miterlimit:1.5;">
    <g id="Layer1" transform="matrix(1,0,0,1,50,-75)">
        <g transform="matrix(0.375,0,0,0.375,250,200)">
            <g transform="matrix(1,0,0,1,-800,-400)">
                <g transform="matrix(2.18752,0,0,2.18752,-61.1422,-172.724)">
                    <g id="Layer2">
                        <path d="M142.841,219.482C152.408,196.581 160.872,190.816 173.421,184.903C185.97,178.989 207.414,182.332 218.135,184.003" style="fill:rgb(45,212,191);stroke:black;stroke-width:9.14px;"/>
                    </g>
                </g>
                <g transform="matrix(2.18752,0,0,2.18752,-66.267,-165.416)">
                    <path d="M141.001,221.267C140.801,221.24 180.038,203.129 201.805,185.368C264.193,134.461 332.241,134.366 360.16,131.892C421.413,126.465 472.044,138.173 467.686,142.509C390.192,219.623 450.77,264.671 451.745,267.384C458.339,285.73 426.4,304.999 413.044,307.94C357.543,320.164 252.343,316.913 200.944,296.721C157.935,279.825 148.433,222.268 141.001,221.267Z" style="fill:rgb(71,85,105);stroke:black;stroke-width:9.14px;"/>
                </g>
                <g transform="matrix(2.18752,0,0,2.18752,-66.267,-165.416)">
                    <g id="Layer11" serif:id="Layer1">
                        <path d="M143.656,222.532C141.071,219.11 126.061,229.935 105.672,229.841C80.843,229.726 37.283,208.491 38.143,209.882C45.64,222.008 61.199,283.336 116.636,295.09C183.407,309.247 194.321,273.244 226.115,270.847C253.331,268.796 285.786,282.684 307.399,280.711C355.496,276.322 383.003,222.602 373.838,222.498C342.511,222.144 172.189,260.306 143.656,222.532Z" style="fill:rgb(45,212,191);stroke:black;stroke-width:9.14px;"/>
                    </g>
                </g>
                <g id="Layer3" transform="matrix(2,0,0,2,0,0)">
                    <g transform="matrix(1.09376,0,0,1.09376,-42.5875,-32.3287)">
                        <g id="Layer6">
                            <path d="M509.312,97.475C510.427,93.642 524.927,91.837 536.199,105.489C546.228,117.637 539.543,126.443 545.475,146.782C550.749,164.866 540.059,177.921 530.648,175.628C499.177,167.959 507.878,102.402 509.312,97.475Z" style="fill:rgb(71,85,105);stroke:black;stroke-width:9.14px;"/>
                        </g>
                    </g>
                    <g transform="matrix(1.09376,0,0,1.09376,-33.1335,-82.7079)">
                        <path d="M483.381,289.912C474.657,291.386 446.333,289.043 432.026,275.876C414.603,259.843 412.04,214.368 415.191,200.175C418.086,187.139 425.903,178.431 432.252,170.996C440.188,161.702 441.18,147.689 457.741,140.881C472.676,134.742 486.174,134.493 494.98,138.182C502.777,141.448 507.698,152.883 514.283,159.872C530.343,176.919 527.39,185.867 534.931,199.803C555.725,238.227 506.949,285.931 483.381,289.912Z" style="fill:rgb(148,163,184);stroke:black;stroke-width:9.14px;"/>
                    </g>
                </g>
                <g transform="matrix(2.18752,0,0,2.18752,-130.841,-84.009)">
                    <g id="arm-4r">
                        <path d="M503.375,219.783C503.855,244.067 499.276,266.83 493.431,280.148C482.779,304.421 463.392,317.489 455.435,323.79C443.822,332.986 394.522,356.015 394.796,355.954C424.932,349.188 479.965,342.77 505.026,306.603C519.348,285.935 516.832,255.943 521.862,228.855" style="fill:url(#_Linear1);stroke:black;stroke-width:9.14px;"/>
                    </g>
                </g>
                <g transform="matrix(2.18752,0,0,2.18752,-13.1001,-164.751)">
                    <g id="arm-4l">
                        <path d="M482.168,229.6C481.837,283.747 482.693,291.269 488.316,304.856C508.307,353.159 571.884,347.716 571.61,347.653C522.984,336.407 523.033,308.858 518.757,280.153C516.103,262.338 503.055,228.676 508.085,201.588" style="fill:url(#_Linear2);stroke:black;stroke-width:9.14px;"/>
                    </g>
                </g>
                <g transform="matrix(2.18752,0,0,2.18752,-30.758,-233.35)">
                    <g id="arm-3l">
                        <path d="M489.762,246.245C497.895,289.125 518.461,276.497 524.045,316.826C525.609,328.118 520.713,361 516.419,375.02C510.04,395.847 496.779,418.994 497.04,418.892C512.547,412.82 535.943,371.711 540.796,353.508C546.277,332.946 548.567,317.172 540.423,287.913C535.149,268.969 513.627,251.391 517.609,214.841" style="fill:url(#_Linear3);stroke:black;stroke-width:9.14px;"/>
                    </g>
                </g>
                <g transform="matrix(2.18752,0,0,2.18752,-102.312,-150.381)">
                    <g id="arm-3r">
                        <path d="M488.319,238.76C497.95,307.817 513.708,342.588 547.666,343.406C591.218,344.455 597.766,365.105 612.361,375.453C649.165,401.55 666.524,386.759 666.255,386.68C623.803,374.189 608.508,342.705 584.354,329.177C561.042,316.119 534.277,322.257 526.995,297.418C522.73,282.871 520.299,258.378 526.463,230.173" style="fill:url(#_Linear4);stroke:black;stroke-width:9.14px;"/>
                    </g>
                </g>
                <g transform="matrix(2.18752,0,0,2.18752,-36.9698,-311.76)">
                    <g id="arm-3l1" serif:id="arm-3l">
                        <path d="M502.424,287.898C504.671,301.781 510.798,318.003 522.433,330.178C542.943,351.639 579.245,358.483 606.998,342.973C641.437,323.726 633.804,323.617 660.083,313.085C703.239,295.79 742.072,322.855 740.924,320.176C738.896,315.444 711.18,289.452 661.473,292.096C629.209,293.812 622.27,320.799 584.354,329.177C570.32,332.278 543.03,322.488 535.132,308.469C527.395,294.737 521.068,263.291 520.45,250.758" style="fill:url(#_Linear5);stroke:black;stroke-width:9.14px;"/>
                    </g>
                </g>
                <g transform="matrix(2.18752,0,0,2.18752,-79.388,-194.713)">
                    <g id="arm-2r">
                        <path d="M488.319,238.76C497.95,307.817 525.361,320.792 559.319,321.61C602.871,322.659 599.983,306.401 631.185,315.553C649.777,321.006 668.629,335.262 680.605,335.554C703.326,336.108 710.687,318.238 710.503,318.25C675.696,320.47 658.087,305.625 633.933,292.096C610.621,279.038 570.401,314.461 548.901,300.047C529.228,286.858 520.299,258.378 526.463,230.173" style="fill:rgb(45,212,191);stroke:black;stroke-width:9.14px;"/>
                    </g>
                </g>
                <g transform="matrix(2.18752,0,0,2.18752,-68.7064,-238.312)">
                    <g id="arm-1r">
                        <path d="M488.319,238.76C531.088,325.662 565.023,338.977 602.943,355.086C635.101,368.747 683.844,381.924 683.618,381.758C651.698,358.37 599.779,339.035 579.4,324.255C563.708,312.874 550.74,297.05 539.948,282.662C528.149,266.931 519.814,245.071 516.903,232.668" style="fill:url(#_Linear6);stroke:black;stroke-width:9.14px;"/>
                    </g>
                </g>
                <g transform="matrix(2.18752,0,0,2.18752,17.6664,-215.738)">
                    <g id="arm-1l">
                        <path d="M467.131,221.698C485.85,247.15 493.951,257.444 505.88,267.983C528.336,287.823 547.027,292.068 569.958,288.877C606.623,283.775 616.97,252.42 619.801,245.101C627.34,225.615 628.896,194.08 640.162,183.229C650.331,173.436 666.672,179.437 668.926,190.895C672.554,209.34 658.172,222.436 652.425,229.727C650.648,231.981 677.468,229.308 687.838,205.395C693.669,191.949 687.51,167.808 665.154,156.131C648.307,147.332 622.52,157.253 614.543,187.298C606.557,217.375 600.572,236.521 591.955,248.587C579.842,265.548 564.651,268.356 549.939,266.464C518.426,262.409 491.791,201.609 482.906,191.632" style="fill:url(#_Linear7);stroke:black;stroke-width:9.14px;"/>
                    </g>
                </g>
                <g transform="matrix(1.80961,0,0,1.63338,119.137,-68.378)">
                    <g id="Layer5">
                        <path d="M447.137,167.198C448.596,164.248 449.02,178.428 460.34,176.219C464.608,175.386 465.255,161.407 470.318,160.281C473.736,159.522 479.364,170.454 485.13,169.27C489.434,168.387 489.582,157.09 492.383,155.115C493.652,154.22 495.056,163.417 494.478,171.689C494.049,177.824 492.53,183.45 489.057,184.072C485.313,184.742 478.996,172.497 473.178,174.851C464.977,178.168 466.259,189.662 460.254,189.788C450.759,189.986 445.781,169.939 447.137,167.198Z" style="stroke:rgb(203,213,225);stroke-width:2.32px;"/>
                    </g>
                </g>
            </g>
        </g>
        <g transform="matrix(1,0,0,1,-167.029,210.557)">
            <g transform="matrix(192,0,0,192,729.675,59.4274)">
                <path d="M0.182,0.002C0.14,0.002 0.106,-0.018 0.079,-0.057C0.052,-0.096 0.039,-0.15 0.039,-0.219C0.039,-0.282 0.048,-0.343 0.065,-0.405C0.082,-0.466 0.107,-0.52 0.138,-0.569C0.169,-0.618 0.206,-0.657 0.25,-0.687C0.293,-0.716 0.34,-0.731 0.392,-0.731C0.425,-0.731 0.453,-0.718 0.476,-0.693C0.499,-0.668 0.511,-0.634 0.511,-0.591L0.511,-0.572C0.511,-0.57 0.511,-0.568 0.51,-0.565L0.379,-0.53C0.371,-0.547 0.362,-0.555 0.351,-0.555C0.335,-0.555 0.318,-0.542 0.301,-0.516C0.283,-0.49 0.266,-0.459 0.25,-0.423C0.239,-0.399 0.23,-0.374 0.222,-0.349C0.213,-0.324 0.207,-0.3 0.202,-0.278C0.197,-0.256 0.195,-0.238 0.195,-0.224C0.195,-0.203 0.198,-0.188 0.204,-0.179C0.209,-0.17 0.216,-0.166 0.226,-0.166C0.236,-0.166 0.247,-0.171 0.259,-0.181C0.271,-0.19 0.282,-0.202 0.293,-0.217C0.303,-0.232 0.31,-0.246 0.313,-0.261L0.427,-0.215C0.394,-0.14 0.356,-0.086 0.311,-0.051C0.266,-0.016 0.223,0.002 0.182,0.002Z" style="fill-rule:nonzero;"/>
            </g>
            <g transform="matrix(192,0,0,192,809.163,59.4274)">
                <path d="M0.165,0.018C0.145,0.018 0.125,0.014 0.104,0.005C0.083,-0.004 0.066,-0.017 0.052,-0.035C0.038,-0.053 0.031,-0.076 0.031,-0.104L0.031,-0.112C0.031,-0.115 0.031,-0.118 0.032,-0.12C0.034,-0.137 0.037,-0.16 0.041,-0.188C0.044,-0.216 0.049,-0.247 0.054,-0.28C0.059,-0.313 0.065,-0.345 0.071,-0.378C0.076,-0.411 0.081,-0.44 0.086,-0.467C0.096,-0.52 0.104,-0.563 0.11,-0.596C0.116,-0.629 0.121,-0.654 0.125,-0.672C0.128,-0.689 0.131,-0.702 0.133,-0.711C0.14,-0.712 0.148,-0.713 0.157,-0.714C0.165,-0.715 0.174,-0.715 0.183,-0.716C0.192,-0.717 0.202,-0.718 0.211,-0.719C0.22,-0.72 0.228,-0.72 0.237,-0.721L0.298,-0.727C0.289,-0.686 0.281,-0.648 0.274,-0.612C0.266,-0.575 0.259,-0.541 0.252,-0.508L0.206,-0.287C0.202,-0.27 0.199,-0.256 0.197,-0.245C0.194,-0.234 0.192,-0.221 0.189,-0.205C0.186,-0.188 0.184,-0.173 0.184,-0.16C0.184,-0.149 0.187,-0.141 0.192,-0.134C0.197,-0.127 0.204,-0.123 0.212,-0.123C0.223,-0.123 0.233,-0.127 0.24,-0.136C0.247,-0.145 0.253,-0.155 0.258,-0.168C0.263,-0.181 0.266,-0.194 0.269,-0.207C0.272,-0.22 0.274,-0.23 0.276,-0.238C0.283,-0.269 0.289,-0.299 0.295,-0.328C0.3,-0.357 0.306,-0.387 0.313,-0.42C0.319,-0.453 0.326,-0.49 0.334,-0.533C0.339,-0.562 0.345,-0.592 0.351,-0.623C0.356,-0.653 0.362,-0.684 0.367,-0.715L0.519,-0.725C0.519,-0.725 0.516,-0.709 0.51,-0.677C0.504,-0.645 0.495,-0.597 0.484,-0.532C0.479,-0.507 0.474,-0.48 0.469,-0.449C0.463,-0.418 0.457,-0.387 0.45,-0.356C0.443,-0.325 0.437,-0.295 0.432,-0.267C0.426,-0.239 0.421,-0.215 0.416,-0.195C0.403,-0.14 0.382,-0.097 0.354,-0.067C0.326,-0.036 0.295,-0.014 0.262,-0.001C0.228,0.012 0.196,0.018 0.165,0.018Z" style="fill-rule:nonzero;"/>
            </g>
            <g transform="matrix(192,0,0,192,889.611,59.4274)">
                <path d="M0.09,0.001C0.097,-0.036 0.105,-0.072 0.113,-0.109C0.12,-0.145 0.127,-0.181 0.134,-0.216C0.159,-0.343 0.18,-0.464 0.196,-0.58C0.189,-0.581 0.181,-0.582 0.173,-0.583C0.165,-0.583 0.157,-0.583 0.15,-0.582C0.134,-0.581 0.118,-0.583 0.103,-0.588C0.104,-0.593 0.104,-0.599 0.104,-0.606L0.104,-0.647C0.104,-0.654 0.104,-0.66 0.105,-0.667C0.106,-0.674 0.106,-0.682 0.106,-0.691C0.106,-0.699 0.106,-0.707 0.107,-0.716C0.124,-0.715 0.142,-0.714 0.159,-0.713C0.176,-0.712 0.194,-0.712 0.211,-0.712C0.26,-0.712 0.308,-0.714 0.353,-0.717C0.397,-0.72 0.439,-0.724 0.477,-0.729L0.466,-0.675L0.457,-0.628C0.454,-0.611 0.451,-0.597 0.448,-0.587C0.441,-0.585 0.433,-0.583 0.426,-0.582C0.419,-0.581 0.411,-0.58 0.404,-0.579C0.397,-0.578 0.389,-0.577 0.382,-0.576C0.374,-0.575 0.366,-0.573 0.359,-0.572C0.349,-0.523 0.341,-0.48 0.335,-0.444C0.328,-0.408 0.323,-0.374 0.318,-0.341C0.313,-0.308 0.307,-0.271 0.3,-0.232C0.289,-0.165 0.279,-0.096 0.27,-0.027L0.09,0.001Z" style="fill-rule:nonzero;"/>
            </g>
            <g transform="matrix(192,0,0,192,959.115,59.4274)">
                <path d="M0.09,0.001C0.097,-0.036 0.105,-0.072 0.113,-0.109C0.12,-0.145 0.127,-0.181 0.134,-0.216C0.159,-0.343 0.18,-0.464 0.196,-0.58C0.189,-0.581 0.181,-0.582 0.173,-0.583C0.165,-0.583 0.157,-0.583 0.15,-0.582C0.134,-0.581 0.118,-0.583 0.103,-0.588C0.104,-0.593 0.104,-0.599 0.104,-0.606L0.104,-0.647C0.104,-0.654 0.104,-0.66 0.105,-0.667C0.106,-0.674 0.106,-0.682 0.106,-0.691C0.106,-0.699 0.106,-0.707 0.107,-0.716C0.124,-0.715 0.142,-0.714 0.159,-0.713C0.176,-0.712 0.194,-0.712 0.211,-0.712C0.26,-0.712 0.308,-0.714 0.353,-0.717C0.397,-0.72 0.439,-0.724 0.477,-0.729L0.466,-0.675L0.457,-0.628C0.454,-0.611 0.451,-0.597 0.448,-0.587C0.441,-0.585 0.433,-0.583 0.426,-0.582C0.419,-0.581 0.411,-0.58 0.404,-0.579C0.397,-0.578 0.389,-0.577 0.382,-0.576C0.374,-0.575 0.366,-0.573 0.359,-0.572C0.349,-0.523 0.341,-0.48 0.335,-0.444C0.328,-0.408 0.323,-0.374 0.318,-0.341C0.313,-0.308 0.307,-0.271 0.3,-0.232C0.289,-0.165 0.279,-0.096 0.27,-0.027L0.09,0.001Z" style="fill-rule:nonzero;"/>
            </g>
            <g transform="matrix(192,0,0,192,1028.62,59.4274)">
                <path d="M0.012,0.002C0.019,-0.051 0.027,-0.104 0.036,-0.157C0.044,-0.21 0.053,-0.262 0.062,-0.312C0.07,-0.361 0.079,-0.406 0.087,-0.446C0.096,-0.489 0.104,-0.533 0.113,-0.578C0.122,-0.623 0.131,-0.668 0.14,-0.713L0.315,-0.736L0.263,-0.51C0.254,-0.471 0.244,-0.429 0.235,-0.384C0.225,-0.339 0.216,-0.295 0.208,-0.253C0.2,-0.211 0.194,-0.174 0.189,-0.141C0.206,-0.142 0.224,-0.143 0.243,-0.144C0.262,-0.144 0.278,-0.144 0.293,-0.144C0.294,-0.129 0.295,-0.113 0.297,-0.096C0.299,-0.079 0.301,-0.064 0.304,-0.052C0.306,-0.039 0.307,-0.032 0.307,-0.031L0.3,-0.031C0.297,-0.031 0.295,-0.031 0.292,-0.032L0.276,-0.032C0.25,-0.032 0.221,-0.031 0.19,-0.029C0.158,-0.026 0.127,-0.023 0.096,-0.018C0.065,-0.013 0.037,-0.006 0.012,0.002Z" style="fill-rule:nonzero;"/>
            </g>
            <g transform="matrix(192,0,0,192,1086.6,59.4274)">
                <path d="M0.008,0.001L0.139,-0.71L0.455,-0.737C0.45,-0.722 0.446,-0.707 0.443,-0.692C0.44,-0.679 0.436,-0.666 0.434,-0.653C0.431,-0.639 0.428,-0.627 0.426,-0.616C0.417,-0.615 0.405,-0.615 0.389,-0.615C0.373,-0.614 0.357,-0.614 0.34,-0.614C0.323,-0.613 0.309,-0.613 0.297,-0.613L0.278,-0.613L0.243,-0.434L0.301,-0.437C0.308,-0.438 0.316,-0.438 0.324,-0.438L0.366,-0.438C0.372,-0.438 0.377,-0.438 0.38,-0.439C0.379,-0.43 0.374,-0.393 0.373,-0.384L0.364,-0.329C0.361,-0.328 0.356,-0.328 0.351,-0.328L0.332,-0.328C0.325,-0.327 0.317,-0.327 0.309,-0.327C0.301,-0.327 0.293,-0.327 0.286,-0.326C0.277,-0.325 0.268,-0.325 0.259,-0.325C0.25,-0.325 0.24,-0.325 0.229,-0.324L0.195,-0.14L0.341,-0.163L0.331,-0.049L0.008,0.001Z" style="fill-rule:nonzero;"/>
            </g>
            <g transform="matrix(192,0,0,192,1152.07,59.4274)">
                <path d="M0.007,0.001C0.017,-0.046 0.027,-0.092 0.036,-0.137C0.045,-0.182 0.054,-0.227 0.063,-0.271C0.077,-0.35 0.091,-0.429 0.104,-0.507C0.117,-0.584 0.127,-0.658 0.133,-0.729L0.185,-0.726C0.194,-0.725 0.204,-0.725 0.213,-0.724C0.222,-0.723 0.23,-0.723 0.239,-0.722C0.249,-0.721 0.259,-0.721 0.269,-0.721C0.279,-0.72 0.289,-0.72 0.299,-0.72C0.298,-0.715 0.296,-0.704 0.293,-0.688C0.29,-0.672 0.287,-0.656 0.284,-0.64C0.281,-0.623 0.278,-0.612 0.277,-0.606L0.259,-0.507L0.265,-0.508C0.284,-0.538 0.307,-0.573 0.332,-0.612C0.357,-0.651 0.381,-0.689 0.403,-0.725C0.436,-0.728 0.47,-0.731 0.503,-0.734C0.536,-0.737 0.57,-0.742 0.603,-0.747C0.588,-0.726 0.572,-0.706 0.557,-0.685C0.542,-0.664 0.527,-0.644 0.512,-0.623C0.497,-0.602 0.48,-0.578 0.462,-0.553C0.444,-0.528 0.427,-0.503 0.411,-0.479C0.394,-0.454 0.381,-0.433 0.37,-0.416C0.377,-0.383 0.385,-0.35 0.394,-0.317C0.403,-0.284 0.412,-0.252 0.422,-0.221C0.432,-0.19 0.442,-0.158 0.452,-0.126C0.462,-0.094 0.472,-0.062 0.483,-0.029C0.468,-0.03 0.452,-0.03 0.436,-0.031C0.42,-0.031 0.404,-0.031 0.389,-0.031C0.37,-0.031 0.351,-0.031 0.333,-0.031C0.315,-0.03 0.296,-0.03 0.277,-0.029C0.274,-0.05 0.271,-0.073 0.268,-0.096C0.265,-0.119 0.261,-0.142 0.258,-0.166C0.255,-0.189 0.251,-0.213 0.248,-0.236C0.245,-0.259 0.241,-0.281 0.238,-0.302L0.22,-0.281C0.215,-0.262 0.21,-0.237 0.205,-0.207C0.202,-0.192 0.2,-0.178 0.197,-0.164C0.194,-0.149 0.191,-0.135 0.188,-0.122C0.185,-0.106 0.182,-0.09 0.179,-0.074C0.176,-0.057 0.172,-0.04 0.169,-0.023L0.007,0.001Z" style="fill-rule:nonzero;"/>
            </g>
            <g transform="matrix(192,0,0,192,1240.78,59.4274)">
                <path d="M0.005,-0.001C0.014,-0.04 0.024,-0.084 0.033,-0.133C0.042,-0.182 0.052,-0.232 0.061,-0.285C0.07,-0.338 0.079,-0.388 0.087,-0.437C0.094,-0.48 0.101,-0.523 0.109,-0.567C0.116,-0.611 0.122,-0.655 0.129,-0.7L0.285,-0.725L0.24,-0.462C0.23,-0.4 0.221,-0.344 0.214,-0.295C0.206,-0.246 0.199,-0.199 0.192,-0.155C0.185,-0.111 0.177,-0.066 0.17,-0.02C0.157,-0.02 0.142,-0.019 0.124,-0.018C0.106,-0.016 0.088,-0.014 0.07,-0.012C0.052,-0.009 0.037,-0.007 0.025,-0.005C0.012,-0.003 0.006,-0.002 0.005,-0.001Z" style="fill-rule:nonzero;"/>
            </g>
            <g transform="matrix(192,0,0,192,1279.56,59.4274)">
                <path d="M0.09,0.001C0.097,-0.036 0.105,-0.072 0.113,-0.109C0.12,-0.145 0.127,-0.181 0.134,-0.216C0.159,-0.343 0.18,-0.464 0.196,-0.58C0.189,-0.581 0.181,-0.582 0.173,-0.583C0.165,-0.583 0.157,-0.583 0.15,-0.582C0.134,-0.581 0.118,-0.583 0.103,-0.588C0.104,-0.593 0.104,-0.599 0.104,-0.606L0.104,-0.647C0.104,-0.654 0.104,-0.66 0.105,-0.667C0.106,-0.674 0.106,-0.682 0.106,-0.691C0.106,-0.699 0.106,-0.707 0.107,-0.716C0.124,-0.715 0.142,-0.714 0.159,-0.713C0.176,-0.712 0.194,-0.712 0.211,-0.712C0.26,-0.712 0.308,-0.714 0.353,-0.717C0.397,-0.72 0.439,-0.724 0.477,-0.729L0.466,-0.675L0.457,-0.628C0.454,-0.611 0.451,-0.597 0.448,-0.587C0.441,-0.585 0.433,-0.583 0.426,-0.582C0.419,-0.581 0.411,-0.58 0.404,-0.579C0.397,-0.578 0.389,-0.577 0.382,-0.576C0.374,-0.575 0.366,-0.573 0.359,-0.572C0.349,-0.523 0.341,-0.48 0.335,-0.444C0.328,-0.408 0.323,-0.374 0.318,-0.341C0.313,-0.308 0.307,-0.271 0.3,-0.232C0.289,-0.165 0.279,-0.096 0.27,-0.027L0.09,0.001Z" style="fill-rule:nonzero;"/>
            </g>
        </g>
    </g>
    <defs>
        <linearGradient id="_Linear1" x1="0" y1="0" x2="1" y2="0" gradientUnits="userSpaceOnUse" gradientTransform="matrix(11.9772,50.8603,-50.8603,11.9772,505.958,249.888)"><stop offset="0" style="stop-color:rgb(148,163,184);stop-opacity:1"/><stop offset="1" style="stop-color:rgb(245,158,11);stop-opacity:1"/></linearGradient>
        <linearGradient id="_Linear2" x1="0" y1="0" x2="1" y2="0" gradientUnits="userSpaceOnUse" gradientTransform="matrix(38.578,99.0992,-99.0992,38.578,498.13,243.505)"><stop offset="0" style="stop-color:rgb(71,85,105);stop-opacity:1"/><stop offset="0.44" style="stop-color:rgb(187,73,211);stop-opacity:1"/><stop offset="1" style="stop-color:rgb(217,70,239);stop-opacity:1"/></linearGradient>
        <linearGradient id="_Linear3" x1="0" y1="0" x2="1" y2="0" gradientUnits="userSpaceOnUse" gradientTransform="matrix(78.8475,219.226,-219.226,78.8475,504.485,238.692)"><stop offset="0" style="stop-color:rgb(71,85,105);stop-opacity:1"/><stop offset="0.21" style="stop-color:rgb(135,80,123);stop-opacity:1"/><stop offset="0.43" style="stop-color:rgb(203,75,143);stop-opacity:1"/><stop offset="1" style="stop-color:rgb(236,72,153);stop-opacity:1"/></linearGradient>
        <linearGradient id="_Linear4" x1="0" y1="0" x2="1" y2="0" gradientUnits="userSpaceOnUse" gradientTransform="matrix(14.8285,59.1003,-59.1003,14.8285,500.858,243.877)"><stop offset="0" style="stop-color:rgb(148,163,184);stop-opacity:1"/><stop offset="1" style="stop-color:rgb(34,211,238);stop-opacity:1"/></linearGradient>
        <linearGradient id="_Linear5" x1="0" y1="0" x2="1" y2="0" gradientUnits="userSpaceOnUse" gradientTransform="matrix(117.171,96.1449,-96.1449,117.171,510.591,289.632)"><stop offset="0" style="stop-color:rgb(71,85,105);stop-opacity:1"/><stop offset="1" style="stop-color:rgb(34,211,238);stop-opacity:1"/></linearGradient>
        <linearGradient id="_Linear6" x1="0" y1="0" x2="1" y2="0" gradientUnits="userSpaceOnUse" gradientTransform="matrix(31.6691,61.9461,-61.9461,31.6691,504.485,238.692)"><stop offset="0" style="stop-color:rgb(148,163,184);stop-opacity:1"/><stop offset="0.21" style="stop-color:rgb(182,128,172);stop-opacity:1"/><stop offset="0.43" style="stop-color:rgb(218,90,159);stop-opacity:1"/><stop offset="1" style="stop-color:rgb(236,72,153);stop-opacity:1"/></linearGradient>
        <linearGradient id="_Linear7" x1="0" y1="0" x2="1" y2="0" gradientUnits="userSpaceOnUse" gradientTransform="matrix(11.8237,30.6304,-30.6304,11.8237,484.136,222.368)"><stop offset="0" style="stop-color:rgb(148,163,184);stop-opacity:1"/><stop offset="1" style="stop-color:rgb(245,158,11);stop-opacity:1"/></linearGradient>
    </defs>
</svg>
