<?xml version="1.0" encoding="UTF-8" standalone="no"?>
<!DOCTYPE svg PUBLIC "-//W3C//DTD SVG 1.1//EN" "http://www.w3.org/Graphics/SVG/1.1/DTD/svg11.dtd">
<svg width="100%" height="100%" viewBox="0 0 1400 250" version="1.1" xmlns="http://www.w3.org/2000/svg" xmlns:xlink="http://www.w3.org/1999/xlink" xml:space="preserve" xmlns:serif="http://www.serif.com/" style="fill-rule:evenodd;clip-rule:evenodd;stroke-linecap:round;stroke-linejoin:round;stroke-miterlimit:1.5;">
    <g id="Layer2">
    </g>
    <g id="Layer1" transform="matrix(1,0,0,1,100,-75)">
        <g transform="matrix(0.375,0,0,0.375,200,200)">
            <g transform="matrix(1,0,0,1,-800,-400)">
                <g transform="matrix(2.18752,0,0,2.18752,-61.1422,-172.724)">
                    <g id="Layer21" serif:id="Layer2">
                        <path d="M142.841,219.482C152.408,196.581 160.872,190.816 173.421,184.903C185.97,178.989 207.414,182.332 218.135,184.003" style="fill:rgb(45,212,191);stroke:rgb(30,41,59);stroke-width:9.14px;"/>
                    </g>
                </g>
                <g transform="matrix(2.18752,0,0,2.18752,-66.267,-165.416)">
                    <path d="M141.001,221.267C140.801,221.24 180.038,203.129 201.805,185.368C264.193,134.461 332.241,134.366 360.16,131.892C421.413,126.465 472.044,138.173 467.686,142.509C390.192,219.623 450.77,264.671 451.745,267.384C458.339,285.73 426.4,304.999 413.044,307.94C357.543,320.164 252.343,316.913 200.944,296.721C157.935,279.825 148.433,222.268 141.001,221.267Z" style="fill:rgb(71,85,105);stroke:rgb(30,41,59);stroke-width:9.14px;"/>
                </g>
                <g transform="matrix(2.18752,0,0,2.18752,-66.267,-165.416)">
                    <g id="Layer11" serif:id="Layer1">
                        <path d="M143.656,222.532C141.071,219.11 126.061,229.935 105.672,229.841C80.843,229.726 37.283,208.491 38.143,209.882C45.64,222.008 61.199,283.336 116.636,295.09C183.407,309.247 194.321,273.244 226.115,270.847C253.331,268.796 285.786,282.684 307.399,280.711C355.496,276.322 383.003,222.602 373.838,222.498C342.511,222.144 172.189,260.306 143.656,222.532Z" style="fill:rgb(45,212,191);stroke:rgb(30,41,59);stroke-width:9.14px;"/>
                    </g>
                </g>
                <g id="Layer3" transform="matrix(2,0,0,2,0,0)">
                    <g transform="matrix(1.09376,0,0,1.09376,-42.5875,-32.3287)">
                        <g id="Layer6">
                            <path d="M509.312,97.475C510.427,93.642 524.927,91.837 536.199,105.489C546.228,117.637 539.543,126.443 545.475,146.782C550.749,164.866 540.059,177.921 530.648,175.628C499.177,167.959 507.878,102.402 509.312,97.475Z" style="fill:rgb(71,85,105);stroke:rgb(30,41,59);stroke-width:9.14px;"/>
                        </g>
                    </g>
                    <g transform="matrix(1.09376,0,0,1.09376,-33.1335,-82.7079)">
                        <path d="M483.381,289.912C474.657,291.386 446.333,289.043 432.026,275.876C414.603,259.843 412.04,214.368 415.191,200.175C418.086,187.139 425.903,178.431 432.252,170.996C440.188,161.702 441.18,147.689 457.741,140.881C472.676,134.742 486.174,134.493 494.98,138.182C502.777,141.448 507.698,152.883 514.283,159.872C530.343,176.919 527.39,185.867 534.931,199.803C555.725,238.227 506.949,285.931 483.381,289.912Z" style="fill:rgb(148,163,184);stroke:rgb(30,41,59);stroke-width:9.14px;"/>
                    </g>
                </g>
                <g transform="matrix(2.18752,0,0,2.18752,-130.841,-84.009)">
                    <g id="arm-4r">
                        <path d="M503.375,219.783C503.855,244.067 499.276,266.83 493.431,280.148C482.779,304.421 463.392,317.489 455.435,323.79C443.822,332.986 394.522,356.015 394.796,355.954C424.932,349.188 479.965,342.77 505.026,306.603C519.348,285.935 516.832,255.943 521.862,228.855" style="fill:url(#_Linear1);stroke:rgb(30,41,59);stroke-width:9.14px;"/>
                    </g>
                </g>
                <g transform="matrix(2.18752,0,0,2.18752,-13.1001,-164.751)">
                    <g id="arm-4l">
                        <path d="M482.168,229.6C481.837,283.747 482.693,291.269 488.316,304.856C508.307,353.159 571.884,347.716 571.61,347.653C522.984,336.407 523.033,308.858 518.757,280.153C516.103,262.338 503.055,228.676 508.085,201.588" style="fill:url(#_Linear2);stroke:rgb(30,41,59);stroke-width:9.14px;"/>
                    </g>
                </g>
                <g transform="matrix(2.18752,0,0,2.18752,-30.758,-233.35)">
                    <g id="arm-3l">
                        <path d="M489.762,246.245C497.895,289.125 518.461,276.497 524.045,316.826C525.609,328.118 520.713,361 516.419,375.02C510.04,395.847 496.779,418.994 497.04,418.892C512.547,412.82 535.943,371.711 540.796,353.508C546.277,332.946 548.567,317.172 540.423,287.913C535.149,268.969 513.627,251.391 517.609,214.841" style="fill:url(#_Linear3);stroke:rgb(30,41,59);stroke-width:9.14px;"/>
                    </g>
                </g>
                <g transform="matrix(2.18752,0,0,2.18752,-102.312,-150.381)">
                    <g id="arm-3r">
                        <path d="M488.319,238.76C497.95,307.817 513.708,342.588 547.666,343.406C591.218,344.455 597.766,365.105 612.361,375.453C649.165,401.55 666.524,386.759 666.255,386.68C623.803,374.189 608.508,342.705 584.354,329.177C561.042,316.119 534.277,322.257 526.995,297.418C522.73,282.871 520.299,258.378 526.463,230.173" style="fill:url(#_Linear4);stroke:rgb(30,41,59);stroke-width:9.14px;"/>
                    </g>
                </g>
                <g transform="matrix(2.18752,0,0,2.18752,-36.9698,-311.76)">
                    <g id="arm-3l1" serif:id="arm-3l">
                        <path d="M502.424,287.898C504.671,301.781 510.798,318.003 522.433,330.178C542.943,351.639 579.245,358.483 606.998,342.973C641.437,323.726 633.804,323.617 660.083,313.085C703.239,295.79 742.072,322.855 740.924,320.176C738.896,315.444 711.18,289.452 661.473,292.096C629.209,293.812 622.27,320.799 584.354,329.177C570.32,332.278 543.03,322.488 535.132,308.469C527.395,294.737 521.068,263.291 520.45,250.758" style="fill:url(#_Linear5);stroke:rgb(30,41,59);stroke-width:9.14px;"/>
                    </g>
                </g>
                <g transform="matrix(2.18752,0,0,2.18752,-79.388,-194.713)">
                    <g id="arm-2r">
                        <path d="M488.319,238.76C497.95,307.817 525.361,320.792 559.319,321.61C602.871,322.659 599.983,306.401 631.185,315.553C649.777,321.006 668.629,335.262 680.605,335.554C703.326,336.108 710.687,318.238 710.503,318.25C675.696,320.47 658.087,305.625 633.933,292.096C610.621,279.038 570.401,314.461 548.901,300.047C529.228,286.858 520.299,258.378 526.463,230.173" style="fill:rgb(45,212,191);stroke:rgb(30,41,59);stroke-width:9.14px;"/>
                    </g>
                </g>
                <g transform="matrix(2.18752,0,0,2.18752,-68.7064,-238.312)">
                    <g id="arm-1r">
                        <path d="M488.319,238.76C531.088,325.662 565.023,338.977 602.943,355.086C635.101,368.747 683.844,381.924 683.618,381.758C651.698,358.37 599.779,339.035 579.4,324.255C563.708,312.874 550.74,297.05 539.948,282.662C528.149,266.931 519.814,245.071 516.903,232.668" style="fill:url(#_Linear6);stroke:rgb(30,41,59);stroke-width:9.14px;"/>
                    </g>
                </g>
                <g transform="matrix(2.18752,0,0,2.18752,17.6664,-215.738)">
                    <g id="arm-1l">
                        <path d="M467.131,221.698C485.85,247.15 493.951,257.444 505.88,267.983C528.336,287.823 547.027,292.068 569.958,288.877C606.623,283.775 616.97,252.42 619.801,245.101C627.34,225.615 628.896,194.08 640.162,183.229C650.331,173.436 666.672,179.437 668.926,190.895C672.554,209.34 658.172,222.436 652.425,229.727C650.648,231.981 677.468,229.308 687.838,205.395C693.669,191.949 687.51,167.808 665.154,156.131C648.307,147.332 622.52,157.253 614.543,187.298C606.557,217.375 600.572,236.521 591.955,248.587C579.842,265.548 564.651,268.356 549.939,266.464C518.426,262.409 491.791,201.609 482.906,191.632" style="fill:url(#_Linear7);stroke:rgb(30,41,59);stroke-width:9.14px;"/>
                    </g>
                </g>
                <g transform="matrix(1.80961,0,0,1.63338,119.137,-68.378)">
                    <g id="Layer5">
                        <path d="M447.137,167.198C448.596,164.248 449.02,178.428 460.34,176.219C464.608,175.386 465.255,161.407 470.318,160.281C473.736,159.522 479.364,170.454 485.13,169.27C489.434,168.387 489.582,157.09 492.383,155.115C493.652,154.22 495.056,163.417 494.478,171.689C494.049,177.824 492.53,183.45 489.057,184.072C485.313,184.742 478.996,172.497 473.178,174.851C464.977,178.168 466.259,189.662 460.254,189.788C450.759,189.986 445.781,169.939 447.137,167.198Z" style="stroke:rgb(203,213,225);stroke-width:2.32px;"/>
                    </g>
                </g>
            </g>
        </g>
        <g transform="matrix(1,0,0,1,-217.029,219.293)" fill="#fafaf9">
            <g transform="matrix(192,0,0,192,729.675,59.4274)">
                <path d="M0.025,-0.169C0.025,-0.216 0.04,-0.267 0.069,-0.323C0.098,-0.379 0.137,-0.427 0.185,-0.467C0.232,-0.507 0.279,-0.527 0.325,-0.527C0.348,-0.527 0.372,-0.512 0.397,-0.482C0.422,-0.451 0.434,-0.424 0.434,-0.4C0.434,-0.383 0.426,-0.374 0.41,-0.374C0.402,-0.374 0.391,-0.378 0.377,-0.385C0.363,-0.392 0.349,-0.396 0.334,-0.396C0.319,-0.396 0.299,-0.384 0.272,-0.359C0.245,-0.333 0.221,-0.304 0.2,-0.269C0.179,-0.234 0.168,-0.206 0.168,-0.186C0.168,-0.166 0.172,-0.153 0.18,-0.147C0.187,-0.141 0.206,-0.138 0.236,-0.138C0.265,-0.138 0.292,-0.141 0.317,-0.146C0.341,-0.151 0.359,-0.157 0.371,-0.163C0.382,-0.168 0.393,-0.171 0.402,-0.171C0.421,-0.171 0.43,-0.163 0.43,-0.147C0.43,-0.118 0.404,-0.088 0.353,-0.058C0.302,-0.027 0.25,-0.012 0.199,-0.012C0.166,-0.012 0.129,-0.03 0.088,-0.067C0.046,-0.103 0.025,-0.137 0.025,-0.169Z" style="fill-rule:nonzero;"/>
            </g>
            <g transform="matrix(192,0,0,192,823.563,59.4274)">
                <path d="M0.376,-0.503C0.381,-0.52 0.392,-0.528 0.408,-0.528C0.424,-0.528 0.443,-0.514 0.464,-0.487C0.485,-0.46 0.495,-0.436 0.495,-0.416C0.495,-0.409 0.48,-0.36 0.449,-0.269C0.418,-0.178 0.395,-0.107 0.378,-0.054C0.369,-0.026 0.353,-0.012 0.331,-0.012C0.318,-0.012 0.307,-0.017 0.298,-0.027C0.289,-0.036 0.284,-0.051 0.284,-0.072C0.284,-0.093 0.288,-0.122 0.296,-0.16C0.227,-0.061 0.173,-0.012 0.132,-0.012C0.111,-0.012 0.085,-0.026 0.055,-0.054C0.025,-0.081 0.01,-0.108 0.01,-0.134C0.01,-0.198 0.028,-0.28 0.065,-0.379C0.101,-0.478 0.135,-0.528 0.167,-0.528C0.186,-0.528 0.204,-0.519 0.219,-0.502C0.234,-0.485 0.241,-0.466 0.241,-0.445C0.241,-0.437 0.233,-0.415 0.216,-0.378C0.165,-0.268 0.14,-0.19 0.14,-0.145C0.14,-0.141 0.142,-0.139 0.145,-0.139C0.155,-0.139 0.174,-0.155 0.202,-0.187C0.229,-0.218 0.26,-0.264 0.295,-0.323C0.329,-0.382 0.356,-0.442 0.376,-0.503Z" style="fill-rule:nonzero;"/>
            </g>
            <g transform="matrix(192,0,0,192,916.875,59.4274)">
                <path d="M0.284,-0.409C0.279,-0.391 0.271,-0.366 0.261,-0.334C0.25,-0.301 0.238,-0.261 0.223,-0.212C0.208,-0.163 0.2,-0.138 0.2,-0.135C0.2,-0.132 0.206,-0.13 0.217,-0.13C0.228,-0.13 0.254,-0.137 0.295,-0.153C0.336,-0.168 0.361,-0.175 0.368,-0.175C0.385,-0.175 0.393,-0.164 0.393,-0.141C0.393,-0.118 0.371,-0.091 0.326,-0.06C0.281,-0.028 0.235,-0.012 0.186,-0.012C0.165,-0.012 0.139,-0.024 0.11,-0.047C0.081,-0.07 0.066,-0.094 0.066,-0.118C0.066,-0.138 0.076,-0.18 0.097,-0.245C0.117,-0.309 0.131,-0.353 0.138,-0.377C0.112,-0.37 0.092,-0.366 0.079,-0.366C0.066,-0.366 0.052,-0.375 0.037,-0.394C0.022,-0.412 0.015,-0.429 0.015,-0.446C0.015,-0.467 0.067,-0.485 0.17,-0.5C0.183,-0.562 0.189,-0.616 0.189,-0.661C0.189,-0.681 0.199,-0.691 0.219,-0.691C0.236,-0.691 0.259,-0.681 0.286,-0.66C0.313,-0.639 0.326,-0.618 0.326,-0.598C0.326,-0.577 0.322,-0.549 0.313,-0.512C0.345,-0.513 0.369,-0.514 0.386,-0.514C0.436,-0.514 0.461,-0.503 0.461,-0.48C0.461,-0.465 0.447,-0.453 0.418,-0.443C0.389,-0.432 0.344,-0.421 0.284,-0.409Z" style="fill-rule:nonzero;"/>
            </g>
            <g transform="matrix(192,0,0,192,1003.47,59.4274)">
                <path d="M0.284,-0.409C0.279,-0.391 0.271,-0.366 0.261,-0.334C0.25,-0.301 0.238,-0.261 0.223,-0.212C0.208,-0.163 0.2,-0.138 0.2,-0.135C0.2,-0.132 0.206,-0.13 0.217,-0.13C0.228,-0.13 0.254,-0.137 0.295,-0.153C0.336,-0.168 0.361,-0.175 0.368,-0.175C0.385,-0.175 0.393,-0.164 0.393,-0.141C0.393,-0.118 0.371,-0.091 0.326,-0.06C0.281,-0.028 0.235,-0.012 0.186,-0.012C0.165,-0.012 0.139,-0.024 0.11,-0.047C0.081,-0.07 0.066,-0.094 0.066,-0.118C0.066,-0.138 0.076,-0.18 0.097,-0.245C0.117,-0.309 0.131,-0.353 0.138,-0.377C0.112,-0.37 0.092,-0.366 0.079,-0.366C0.066,-0.366 0.052,-0.375 0.037,-0.394C0.022,-0.412 0.015,-0.429 0.015,-0.446C0.015,-0.467 0.067,-0.485 0.17,-0.5C0.183,-0.562 0.189,-0.616 0.189,-0.661C0.189,-0.681 0.199,-0.691 0.219,-0.691C0.236,-0.691 0.259,-0.681 0.286,-0.66C0.313,-0.639 0.326,-0.618 0.326,-0.598C0.326,-0.577 0.322,-0.549 0.313,-0.512C0.345,-0.513 0.369,-0.514 0.386,-0.514C0.436,-0.514 0.461,-0.503 0.461,-0.48C0.461,-0.465 0.447,-0.453 0.418,-0.443C0.389,-0.432 0.344,-0.421 0.284,-0.409Z" style="fill-rule:nonzero;"/>
            </g>
            <g transform="matrix(192,0,0,192,1090.06,59.4274)">
                <path d="M0.166,-0.808C0.182,-0.808 0.203,-0.793 0.228,-0.764C0.253,-0.735 0.266,-0.707 0.266,-0.68C0.266,-0.653 0.262,-0.606 0.254,-0.538C0.246,-0.469 0.238,-0.415 0.229,-0.374C0.174,-0.133 0.135,-0.012 0.113,-0.012C0.098,-0.012 0.08,-0.024 0.059,-0.048C0.037,-0.071 0.026,-0.091 0.026,-0.106C0.026,-0.107 0.035,-0.142 0.053,-0.21C0.071,-0.278 0.089,-0.366 0.108,-0.473C0.126,-0.58 0.135,-0.682 0.135,-0.779C0.135,-0.798 0.145,-0.808 0.166,-0.808Z" style="fill-rule:nonzero;"/>
            </g>
            <g transform="matrix(192,0,0,192,1141.13,59.4274)">
                <path d="M0.473,-0.341C0.473,-0.308 0.451,-0.279 0.407,-0.253C0.362,-0.227 0.317,-0.214 0.27,-0.214C0.223,-0.214 0.185,-0.217 0.155,-0.224C0.149,-0.206 0.146,-0.188 0.146,-0.17C0.146,-0.152 0.149,-0.139 0.155,-0.132C0.161,-0.124 0.176,-0.12 0.2,-0.12C0.25,-0.12 0.293,-0.125 0.329,-0.134C0.364,-0.143 0.383,-0.148 0.384,-0.148C0.411,-0.148 0.425,-0.139 0.425,-0.121C0.425,-0.095 0.403,-0.07 0.361,-0.047C0.317,-0.024 0.268,-0.012 0.212,-0.012C0.155,-0.012 0.11,-0.03 0.076,-0.065C0.042,-0.1 0.025,-0.142 0.025,-0.191C0.025,-0.239 0.039,-0.289 0.068,-0.342C0.096,-0.395 0.131,-0.439 0.174,-0.475C0.217,-0.51 0.259,-0.528 0.302,-0.528C0.344,-0.528 0.383,-0.507 0.419,-0.466C0.455,-0.424 0.473,-0.382 0.473,-0.341ZM0.357,-0.357C0.357,-0.364 0.35,-0.373 0.336,-0.386C0.322,-0.399 0.309,-0.405 0.297,-0.405C0.284,-0.405 0.268,-0.396 0.249,-0.379C0.23,-0.361 0.211,-0.338 0.194,-0.31C0.2,-0.309 0.209,-0.309 0.22,-0.309C0.311,-0.309 0.357,-0.325 0.357,-0.357Z" style="fill-rule:nonzero;"/>
            </g>
            <g transform="matrix(192,0,0,192,1234.83,59.4274)">
                <path d="M0.118,-0.012C0.103,-0.012 0.084,-0.024 0.061,-0.049C0.038,-0.074 0.026,-0.093 0.026,-0.108C0.026,-0.112 0.037,-0.152 0.06,-0.227C0.082,-0.302 0.104,-0.393 0.127,-0.499C0.149,-0.605 0.16,-0.698 0.16,-0.777C0.16,-0.798 0.169,-0.808 0.188,-0.808C0.204,-0.808 0.225,-0.794 0.252,-0.765C0.278,-0.736 0.291,-0.708 0.291,-0.683C0.291,-0.646 0.278,-0.577 0.252,-0.475C0.225,-0.373 0.199,-0.293 0.173,-0.234C0.182,-0.245 0.194,-0.261 0.209,-0.28C0.224,-0.299 0.266,-0.353 0.28,-0.37C0.293,-0.387 0.305,-0.402 0.314,-0.413C0.323,-0.424 0.334,-0.436 0.345,-0.45C0.356,-0.463 0.366,-0.474 0.375,-0.483C0.383,-0.491 0.391,-0.499 0.4,-0.506C0.416,-0.521 0.428,-0.528 0.437,-0.528C0.454,-0.528 0.472,-0.517 0.492,-0.495C0.512,-0.472 0.522,-0.453 0.522,-0.436C0.522,-0.429 0.508,-0.414 0.48,-0.39C0.451,-0.366 0.423,-0.339 0.395,-0.31C0.366,-0.281 0.352,-0.255 0.352,-0.232C0.352,-0.209 0.359,-0.186 0.373,-0.165C0.386,-0.143 0.401,-0.126 0.417,-0.115C0.433,-0.104 0.448,-0.092 0.462,-0.081C0.475,-0.069 0.482,-0.059 0.482,-0.051C0.482,-0.025 0.464,-0.012 0.429,-0.012C0.387,-0.012 0.331,-0.047 0.262,-0.118L0.238,-0.142C0.178,-0.055 0.138,-0.012 0.118,-0.012Z" style="fill-rule:nonzero;"/>
            </g>
            <g transform="matrix(192,0,0,192,1329.48,59.4274)">
                <path d="M0.123,-0.653C0.123,-0.67 0.131,-0.688 0.147,-0.707C0.162,-0.725 0.178,-0.734 0.193,-0.734C0.208,-0.734 0.225,-0.716 0.246,-0.68C0.267,-0.644 0.277,-0.618 0.277,-0.602C0.277,-0.585 0.272,-0.573 0.261,-0.564C0.25,-0.555 0.239,-0.551 0.228,-0.551C0.209,-0.551 0.186,-0.564 0.161,-0.589C0.136,-0.614 0.123,-0.636 0.123,-0.653ZM0.138,-0.528C0.161,-0.528 0.182,-0.515 0.201,-0.488C0.219,-0.461 0.228,-0.436 0.228,-0.411C0.228,-0.398 0.217,-0.353 0.194,-0.275C0.171,-0.196 0.148,-0.122 0.125,-0.052C0.117,-0.026 0.101,-0.013 0.076,-0.013C0.061,-0.013 0.048,-0.019 0.038,-0.03C0.027,-0.041 0.021,-0.055 0.021,-0.073C0.021,-0.09 0.029,-0.134 0.047,-0.205C0.064,-0.275 0.077,-0.335 0.086,-0.385C0.095,-0.434 0.103,-0.47 0.111,-0.494C0.118,-0.517 0.127,-0.528 0.138,-0.528Z" style="fill-rule:nonzero;"/>
            </g>
            <g transform="matrix(192,0,0,192,1379.4,59.4274)">
                <path d="M0.284,-0.409C0.279,-0.391 0.271,-0.366 0.261,-0.334C0.25,-0.301 0.238,-0.261 0.223,-0.212C0.208,-0.163 0.2,-0.138 0.2,-0.135C0.2,-0.132 0.206,-0.13 0.217,-0.13C0.228,-0.13 0.254,-0.137 0.295,-0.153C0.336,-0.168 0.361,-0.175 0.368,-0.175C0.385,-0.175 0.393,-0.164 0.393,-0.141C0.393,-0.118 0.371,-0.091 0.326,-0.06C0.281,-0.028 0.235,-0.012 0.186,-0.012C0.165,-0.012 0.139,-0.024 0.11,-0.047C0.081,-0.07 0.066,-0.094 0.066,-0.118C0.066,-0.138 0.076,-0.18 0.097,-0.245C0.117,-0.309 0.131,-0.353 0.138,-0.377C0.112,-0.37 0.092,-0.366 0.079,-0.366C0.066,-0.366 0.052,-0.375 0.037,-0.394C0.022,-0.412 0.015,-0.429 0.015,-0.446C0.015,-0.467 0.067,-0.485 0.17,-0.5C0.183,-0.562 0.189,-0.616 0.189,-0.661C0.189,-0.681 0.199,-0.691 0.219,-0.691C0.236,-0.691 0.259,-0.681 0.286,-0.66C0.313,-0.639 0.326,-0.618 0.326,-0.598C0.326,-0.577 0.322,-0.549 0.313,-0.512C0.345,-0.513 0.369,-0.514 0.386,-0.514C0.436,-0.514 0.461,-0.503 0.461,-0.48C0.461,-0.465 0.447,-0.453 0.418,-0.443C0.389,-0.432 0.344,-0.421 0.284,-0.409Z" style="fill-rule:nonzero;"/>
            </g>
        </g>
    </g>
    <defs>
        <linearGradient id="_Linear1" x1="0" y1="0" x2="1" y2="0" gradientUnits="userSpaceOnUse" gradientTransform="matrix(11.9772,50.8603,-50.8603,11.9772,505.958,249.888)"><stop offset="0" style="stop-color:rgb(148,163,184);stop-opacity:1"/><stop offset="1" style="stop-color:rgb(245,158,11);stop-opacity:1"/></linearGradient>
        <linearGradient id="_Linear2" x1="0" y1="0" x2="1" y2="0" gradientUnits="userSpaceOnUse" gradientTransform="matrix(38.578,99.0992,-99.0992,38.578,498.13,243.505)"><stop offset="0" style="stop-color:rgb(71,85,105);stop-opacity:1"/><stop offset="0.44" style="stop-color:rgb(187,73,211);stop-opacity:1"/><stop offset="1" style="stop-color:rgb(217,70,239);stop-opacity:1"/></linearGradient>
        <linearGradient id="_Linear3" x1="0" y1="0" x2="1" y2="0" gradientUnits="userSpaceOnUse" gradientTransform="matrix(78.8475,219.226,-219.226,78.8475,504.485,238.692)"><stop offset="0" style="stop-color:rgb(71,85,105);stop-opacity:1"/><stop offset="0.21" style="stop-color:rgb(135,80,123);stop-opacity:1"/><stop offset="0.43" style="stop-color:rgb(203,75,143);stop-opacity:1"/><stop offset="1" style="stop-color:rgb(236,72,153);stop-opacity:1"/></linearGradient>
        <linearGradient id="_Linear4" x1="0" y1="0" x2="1" y2="0" gradientUnits="userSpaceOnUse" gradientTransform="matrix(14.8285,59.1003,-59.1003,14.8285,500.858,243.877)"><stop offset="0" style="stop-color:rgb(148,163,184);stop-opacity:1"/><stop offset="1" style="stop-color:rgb(34,211,238);stop-opacity:1"/></linearGradient>
        <linearGradient id="_Linear5" x1="0" y1="0" x2="1" y2="0" gradientUnits="userSpaceOnUse" gradientTransform="matrix(117.171,96.1449,-96.1449,117.171,510.591,289.632)"><stop offset="0" style="stop-color:rgb(71,85,105);stop-opacity:1"/><stop offset="1" style="stop-color:rgb(34,211,238);stop-opacity:1"/></linearGradient>
        <linearGradient id="_Linear6" x1="0" y1="0" x2="1" y2="0" gradientUnits="userSpaceOnUse" gradientTransform="matrix(31.6691,61.9461,-61.9461,31.6691,504.485,238.692)"><stop offset="0" style="stop-color:rgb(148,163,184);stop-opacity:1"/><stop offset="0.21" style="stop-color:rgb(182,128,172);stop-opacity:1"/><stop offset="0.43" style="stop-color:rgb(218,90,159);stop-opacity:1"/><stop offset="1" style="stop-color:rgb(236,72,153);stop-opacity:1"/></linearGradient>
        <linearGradient id="_Linear7" x1="0" y1="0" x2="1" y2="0" gradientUnits="userSpaceOnUse" gradientTransform="matrix(11.8237,30.6304,-30.6304,11.8237,484.136,222.368)"><stop offset="0" style="stop-color:rgb(148,163,184);stop-opacity:1"/><stop offset="1" style="stop-color:rgb(245,158,11);stop-opacity:1"/></linearGradient>
    </defs>
</svg>
